STARTFONT 2.1
COMMENT
COMMENT Converted from OpenType font "Font 90 Icons.ttf" by "otf2bdf 3.0".
COMMENT
FONT -FreeType-Font 90 Icons-Medium-R-Normal--26-190-100-100-P-98-ISO10646-1
SIZE 19 100 100
FONTBOUNDINGBOX 28 28 0 -6
STARTPROPERTIES 19
FOUNDRY "FreeType"
FAMILY_NAME "Font 90 Icons"
WEIGHT_NAME "Medium"
SLANT "R"
SETWIDTH_NAME "Normal"
ADD_STYLE_NAME ""
PIXEL_SIZE 26
POINT_SIZE 190
RESOLUTION_X 100
RESOLUTION_Y 100
SPACING "P"
AVERAGE_WIDTH 98
CHARSET_REGISTRY "ISO10646"
CHARSET_ENCODING "1"
FONT_ASCENT 21
FONT_DESCENT 5
COPYRIGHT "Typeface © (el-harrak.blogspot.com). <darrati10@gmail.com>. All Rights Reserved"
_OTF_FONTFILE "Font 90 Icons.ttf"
_OTF_PSNAME "Font 90 Icons"
ENDPROPERTIES
CHARS 242
STARTCHAR 0000
ENCODING 0
SWIDTH 0 0
DWIDTH 0 0
BBX 0 0 0 0
BITMAP
ENDCHAR
STARTCHAR 001D
ENCODING 29
SWIDTH 0 0
DWIDTH 0 0
BBX 0 0 0 0
BITMAP
ENDCHAR
STARTCHAR 0020
ENCODING 32
SWIDTH 227 0
DWIDTH 6 0
BBX 0 0 0 0
BITMAP
ENDCHAR
STARTCHAR 0021
ENCODING 33
SWIDTH 947 0
DWIDTH 25 0
BBX 25 25 0 -4
BITMAP
003F0000
01FEC000
07FFB000
0FFFC800
1FFFC400
3FF7C200
3FE3E100
7FE3E100
7FFFC080
7FFFC080
FFFF8080
FFFF0080
FFFC0080
FFC00080
FF000080
FF000080
7E000080
7E1C0100
3E1C0100
3E1C0200
1E000600
0F000C00
07001800
03C06000
00FF8000
ENDCHAR
STARTCHAR 0022
ENCODING 34
SWIDTH 947 0
DWIDTH 25 0
BBX 25 20 0 -2
BITMAP
007F8000
00408000
00408000
7FFFFF00
FFFFFF80
FFFFFF80
FFFFFF80
FFFFFF80
FFFFFF80
FFFFFF80
FFFFFF80
FFFFFF80
FFFFFF80
FFFFFF80
FFFFFF80
FFFFFF80
FFFFFF80
FFFFFF80
7FFFFF80
3FFFFF00
ENDCHAR
STARTCHAR 0023
ENCODING 35
SWIDTH 947 0
DWIDTH 25 0
BBX 24 27 1 -5
BITMAP
004000
07FC00
FFFF00
EFFFFC
EFFFFC
6FFFFC
6FFFFC
7FFFFC
77FFFE
77FFFE
77FFFE
37FFFE
37FFFE
3F00FE
3A003E
380007
380000
180000
1C0000
1C0000
1C0000
1C0000
0C0000
0C0000
0E0000
0E0000
0E0000
ENDCHAR
STARTCHAR 0024
ENCODING 36
SWIDTH 947 0
DWIDTH 25 0
BBX 25 25 0 -4
BITMAP
1C000000
3E000000
7F000000
FF800000
FFC00000
FFE00000
7FF00000
3FEC0000
1FDE0000
0FBF0000
077C0000
02F80000
03F40000
01FC0000
00E20000
00410000
00008000
00004000
00002000
00001000
00000800
00000400
00000200
00000100
00000080
ENDCHAR
STARTCHAR 0025
ENCODING 37
SWIDTH 947 0
DWIDTH 25 0
BBX 24 27 1 -5
BITMAP
001000
003C00
007C00
00FE00
03FF80
07FFE0
7FFBFE
FE38FE
FC187F
FE10FE
7F11FC
7F9BFC
70FE1E
707C1E
707C1E
73FF9C
7F91FC
7F18FE
FC187E
FE387F
FF39FE
0FFFE0
07FFC0
01FF80
003C00
003C00
003800
ENDCHAR
STARTCHAR 0026
ENCODING 38
SWIDTH 947 0
DWIDTH 25 0
BBX 25 25 0 -4
BITMAP
003E0000
01FFC000
07807000
0E081800
18FF8C00
31FFC600
33FFE300
67FFF300
6E7FF900
4F3F7980
CF9EFD80
CFCDFC80
DFE3FC80
DFF3FC80
CFFFFC80
CFFFF980
4FFFF980
67FFF900
23FFF300
33FFE600
18FFCC00
0C3E1C00
07003000
03E3E000
007F8000
ENDCHAR
STARTCHAR 0027
ENCODING 39
SWIDTH 947 0
DWIDTH 25 0
BBX 25 25 0 -5
BITMAP
01F00000
07FE0000
0FFF0000
1FFF8000
3E07C000
7C63E000
7861E000
7061E000
F060F000
F7FEF000
F3FCF000
F060F000
7861E000
7861E000
7C03E000
3F0FE000
1FFFF000
0FFFF800
07FFFC00
00E1FE00
0000FF00
00007F80
00003F80
00001F80
00000F00
ENDCHAR
STARTCHAR 0028
ENCODING 40
SWIDTH 947 0
DWIDTH 25 0
BBX 25 25 0 -4
BITMAP
01F80000
07FE0000
1FFF8000
3FFF8000
3E07C000
7C03E000
7801E000
F000F000
F3F8F000
F7FCF000
F3FCF000
F000F000
7801E000
7801E000
7C03E000
3F9FF000
1FFFF800
0FFFFC00
03FFFE00
0061FF00
0000FF80
00007F80
00003F80
00001F80
00000F00
ENDCHAR
STARTCHAR 0029
ENCODING 41
SWIDTH 947 0
DWIDTH 25 0
BBX 25 19 0 -1
BITMAP
3FFFFF00
FFFFFF80
E0000380
F0000780
D8000E80
CC001C80
C6003880
C3007080
C180E080
C0C18080
C0E3C080
C1BFE080
C31E7080
C6003880
CC001C80
D8000E80
F0000780
E0000380
FFFFFF80
ENDCHAR
STARTCHAR 002A
ENCODING 42
SWIDTH 947 0
DWIDTH 25 0
BBX 22 27 2 -5
BITMAP
002000
007000
007000
007000
007000
007000
007000
0C7180
0F7780
0FFF80
07FF00
7FFFF8
7FFFF0
FFFFEC
FFFFDC
FFFFBC
FFFF7C
FFFEFC
FFFDFC
FEFBFC
FD77FC
FBCFFC
F7FFFC
EFFFFC
DFFFFC
BFFFFC
7FFFF8
ENDCHAR
STARTCHAR 002B
ENCODING 43
SWIDTH 947 0
DWIDTH 25 0
BBX 25 25 0 -4
BITMAP
FFFFFF80
FFFFFF80
FFFFFF80
FFFFFF80
E0FF8380
E1FFC380
E0FF8380
E07F0380
ECFF8B80
FFFFDF80
FFFFFF80
FFFFFF80
FFFFFF80
FFFFFF80
FFFFFF80
FFFFFF80
ECFF9F80
E87F0B80
E07F8380
E0FFC380
E1FFC380
E07F8380
FFFFFF80
FFFFFF80
FFFFFF80
ENDCHAR
STARTCHAR 002C
ENCODING 44
SWIDTH 947 0
DWIDTH 25 0
BBX 25 25 0 -4
BITMAP
00001800
0003FC00
0007FE00
000FFF00
001FE780
003FE380
007FF780
00FFFF80
01FFFF80
03FFFF00
07FFFF00
0E7FFF00
1F3FFE00
399FFC00
7CCFF800
FE67F000
7F33E000
3F99C000
1FCF8000
0FE70000
07FE0000
03FC0000
01F80000
00F00000
00600000
ENDCHAR
STARTCHAR 002D
ENCODING 45
SWIDTH 947 0
DWIDTH 25 0
BBX 25 25 0 -4
BITMAP
003E0000
01FFC000
0780F000
0E003800
1C000C00
3C008600
32018300
61038300
60C78100
400F8180
C0FF8180
C0FF8180
C0FF8080
C0FF8080
C0FF8180
C0FF8180
40078180
6003A300
2001A300
30009600
18000C00
0C001C00
07007800
03E3E000
007F8000
ENDCHAR
STARTCHAR 002E
ENCODING 46
SWIDTH 947 0
DWIDTH 25 0
BBX 22 27 2 -5
BITMAP
3FFFF0
200018
200018
200018
200018
200018
200018
200018
200018
200018
200018
200018
200018
3FFFF8
000000
3FFFF0
3FFFF8
3FFC38
3FFFF8
3FFFF8
3FFFF0
003000
003000
003000
01FE00
FFFFFC
01FE00
ENDCHAR
STARTCHAR 002F
ENCODING 47
SWIDTH 947 0
DWIDTH 25 0
BBX 25 26 0 -5
BITMAP
103E0600
187F0400
18FF8C00
88FF8C80
CCFF8980
4CFF9980
6CFF9980
6CFF9B00
66FF9B00
66FF9B00
66FF9B00
66FF9B00
66FF9B00
6CFF9900
6CFF9980
4CFF9980
CCFF8D80
887F8C80
183F0C00
183E0600
103E0200
003E0000
003E0000
003E0000
003E0000
000C0000
ENDCHAR
STARTCHAR 0030
ENCODING 48
SWIDTH 947 0
DWIDTH 25 0
BBX 25 25 0 -4
BITMAP
003E0000
01FFC000
07FFF000
0FFFF800
1FFFBC00
3C7F9E00
387F0F00
783F0700
703E0700
701E0380
E03E0380
E0630380
E0630380
FFE3FF80
FFF7FF80
FFFFFF80
7FC1FF80
7FC1FF00
3F80FF00
3F807E00
1F007E00
0F807C00
07FFF800
03FFE000
00FF8000
ENDCHAR
STARTCHAR 0031
ENCODING 49
SWIDTH 947 0
DWIDTH 25 0
BBX 25 27 0 -5
BITMAP
001E0000
003E0000
003E0000
00BE0000
033E6000
073E7000
0F3E7800
1F3E7C00
3E3E3E00
3C3E1F00
783E0F00
783E0F00
703E0780
703E0780
F03E0780
F0000780
70000780
78000780
78000F00
78000F00
3C001E00
3E003E00
1F807C00
0FFFF800
07FFF000
01FFE000
007F0000
ENDCHAR
STARTCHAR 0032
ENCODING 50
SWIDTH 947 0
DWIDTH 25 0
BBX 24 27 1 -5
BITMAP
001000
003C00
007C00
007C00
003C00
003800
70380E
F8383E
FC187E
FE10FE
3F11FC
0F9BE0
00FE00
007C00
007C00
03FF80
1F91F8
7F18FE
FC187E
F8383F
F0381E
003800
003C00
003C00
003C00
003C00
003800
ENDCHAR
STARTCHAR 0033
ENCODING 51
SWIDTH 947 0
DWIDTH 25 0
BBX 25 24 0 -4
BITMAP
00080000
000C0000
001C0000
001C0000
003E0000
003E0000
007F0000
007F0000
1FFFFC00
FFFFFF80
3FFFFF00
1FFFFE00
0FFFF800
07FFF000
03FFE000
03FFE000
03FFE000
03FFE000
03FFF000
03FFF000
03E1F000
0780F000
06003000
04000800
ENDCHAR
STARTCHAR 0034
ENCODING 52
SWIDTH 947 0
DWIDTH 25 0
BBX 25 18 0 -1
BITMAP
7FFFFF00
BFFFFE80
DFFFFD80
EFFFFB80
F7FFF780
FBFFEF80
FDFFDF80
FEFFBF80
FF7F7F80
FF3E7F80
FEDDFF80
FDF3FF80
FBFFFF80
F7FFFF80
EFFFFF80
DFFFFF80
BFFFFF80
7FFFFF00
ENDCHAR
STARTCHAR 0035
ENCODING 53
SWIDTH 947 0
DWIDTH 25 0
BBX 25 19 0 -2
BITMAP
001CF000
0023F000
00CDF000
01BE7000
067F3000
0DFFC800
33FFE600
6FFFF900
8FFFF880
0FFFF800
0FFFF800
0FE1F800
0FE1F800
0FE1F800
0FE1F800
0FE1F800
0FE1F800
0FE1F800
0FE1F800
ENDCHAR
STARTCHAR 0036
ENCODING 54
SWIDTH 947 0
DWIDTH 25 0
BBX 25 26 0 -5
BITMAP
0E007800
1F007800
1E007800
0E003000
00007800
7FC1FE00
FFC1FE00
FFC37B00
DF437F00
DF43FF00
DF43FD00
DF46FD80
DF47FF80
DF47FF80
DF41FE00
1B03FF00
1B03FF00
1B03FF00
1B007800
1B007800
1B007800
1B007800
1B007800
1B007800
1B007800
1B007800
ENDCHAR
STARTCHAR 0037
ENCODING 55
SWIDTH 947 0
DWIDTH 25 0
BBX 25 19 0 -1
BITMAP
00F00000
07FE0000
0F0F0000
1E0F8000
3E07C000
7E0FC000
7F1FE000
E3F86000
C1F02000
C1F02000
C1F02000
E3F86000
7F1FE000
7E0FE000
7E07C000
3E0FC000
1F0FC180
0FBE7F80
03FC3C00
ENDCHAR
STARTCHAR 0038
ENCODING 56
SWIDTH 947 0
DWIDTH 25 0
BBX 20 27 3 -5
BITMAP
7FFFC0
FFFFE0
FFFFF0
C00030
C00030
C00030
C00030
C00070
FFFFF0
FFFFF0
C31C70
C31C70
C31C70
FFFFF0
FFFFF0
C71C70
C31C70
C31C70
C71C70
FFFFF0
FFFFF0
C31C70
C31C70
C31C70
FFFFF0
FFFFF0
FFFFE0
ENDCHAR
STARTCHAR 0039
ENCODING 57
SWIDTH 947 0
DWIDTH 25 0
BBX 25 24 0 -4
BITMAP
E0000000
70000000
30000000
19FFFF80
19FFFF80
0CFFFF00
0CFFFF00
04FFFE00
06FFFE00
06FFFC00
06FFFC00
067FF800
02000000
03000000
03000000
03FFFE00
03FFFE00
00000000
00000000
03C01E00
07C03E00
07C03E00
03C03E00
01800C00
ENDCHAR
STARTCHAR 003A
ENCODING 58
SWIDTH 947 0
DWIDTH 25 0
BBX 25 25 0 -4
BITMAP
0000E000
0003FC00
0007FE00
000FE700
001FC300
001FC380
001FC380
001FFF80
001FFF80
001FFF80
003FFF00
006FFF00
00E7FE00
01F3FC00
03F8F000
07FE0000
0FF00000
1FF00000
3FE00000
7E000000
FE000000
FE000000
FE000000
78000000
78000000
ENDCHAR
STARTCHAR 003B
ENCODING 59
SWIDTH 947 0
DWIDTH 25 0
BBX 25 25 0 -4
BITMAP
000C0000
000C0000
000C0000
000C0000
000C0000
000C0000
000C0000
000C0000
000C0000
000C0000
000C0000
000C0000
FFFFFF80
FFFFFF80
000C0000
000C0000
000C0000
000C0000
000C0000
000C0000
000C0000
000C0000
000C0000
000C0000
000C0000
ENDCHAR
STARTCHAR 003C
ENCODING 60
SWIDTH 947 0
DWIDTH 25 0
BBX 25 20 0 -2
BITMAP
000C0000
001C0000
001E0000
003E0000
00770000
00638000
00E18000
00C1C000
01C0C000
0380E000
03007000
07003000
06003800
0E001800
1C001C00
18000E00
38000600
30000700
70000300
E0000380
ENDCHAR
STARTCHAR 003D
ENCODING 61
SWIDTH 947 0
DWIDTH 25 0
BBX 25 25 0 -4
BITMAP
001E0000
01E3C000
07003000
0C001800
18000400
33FE0200
21C38300
41C38100
41C1C100
41C1C080
81C18080
81C38080
81FE0080
81CC0080
81CE0080
C1C70080
41C30180
41C38100
21C1C100
23F0F200
10000600
08000C00
06001000
0380E000
00FF8000
ENDCHAR
STARTCHAR 003E
ENCODING 62
SWIDTH 947 0
DWIDTH 25 0
BBX 25 25 0 -4
BITMAP
001E0000
01E3C000
07003000
0C001800
18000400
307FE200
20C0E300
61806100
43002100
47002080
87000080
87000080
87000080
87000080
87000080
C7000080
47000180
43803100
21C04100
20FB8200
101C0400
08000C00
06001000
0380E000
00FF8000
ENDCHAR
STARTCHAR 003F
ENCODING 63
SWIDTH 947 0
DWIDTH 25 0
BBX 25 25 0 -4
BITMAP
003E0000
01FFC000
03FFF000
0FC0F800
1F003C00
1C001E00
38000E00
78000700
70000700
70000380
E0000380
E0000380
E0000380
E0000380
E0000380
E0000380
70000380
70000700
38000F00
3C000E00
1E001E00
0F007C00
07FFF000
03FFE000
00FF8000
ENDCHAR
STARTCHAR 0040
ENCODING 64
SWIDTH 947 0
DWIDTH 25 0
BBX 25 25 0 -4
BITMAP
00080000
00080000
000C0000
001C0000
001E0000
003E0000
003F0000
007F0000
007F8000
00FF8000
00FFC000
01FFC000
01FFE000
03FFE000
03FFF000
07FFF000
07FFF800
0FFFF800
0FFFFC00
1FFFFC00
1FFFFE00
3FFFFE00
3FFFFF00
7FFFFF00
FFFFFF80
ENDCHAR
STARTCHAR 0041
ENCODING 65
SWIDTH 947 0
DWIDTH 25 0
BBX 25 24 0 -4
BITMAP
80400000
E0700000
F0780000
F87C0000
FE7F0000
FF7F8000
FFBFC000
FFEFF000
FFF7F800
FFFBFC00
FFFEFF00
FFFF7F80
FFFEFF00
FFFDFE00
FFF3F800
FFEFF000
FFDFE000
FF3F8000
FE7F0000
FC7E0000
F8780000
E0700000
C0600000
80400000
ENDCHAR
STARTCHAR 0042
ENCODING 66
SWIDTH 947 0
DWIDTH 25 0
BBX 22 27 2 -5
BITMAP
8000FC
C000FC
E000FC
F800FC
FC00FC
FF00FC
FFC0FC
FFE0FC
FFF8FC
FFFEFC
FFFFFC
FFFFFC
FFFFFC
FFFFFC
FFFFFC
FFFFFC
FFFFFC
FFFEFC
FFFCFC
FFF0FC
FFE0FC
FF80FC
FE00FC
FC00FC
F000FC
C000FC
8000FC
ENDCHAR
STARTCHAR 0043
ENCODING 67
SWIDTH 947 0
DWIDTH 25 0
BBX 19 27 3 -5
BITMAP
FF1FE0
FF1FE0
FF1FE0
FF1FE0
FF1FE0
FF1FE0
FF1FE0
FF1FE0
FF1FE0
FF1FE0
FF1FE0
FF1FE0
FF1FE0
FF1FE0
FF1FE0
FF1FE0
FF1FE0
FF1FE0
FF1FE0
FF1FE0
FF1FE0
FF1FE0
FF1FE0
FF1FE0
FF1FE0
FF1FE0
FF1FE0
ENDCHAR
STARTCHAR 0044
ENCODING 68
SWIDTH 947 0
DWIDTH 25 0
BBX 22 26 2 -5
BITMAP
800000
E00000
F80000
FC0000
FF0000
FFC000
FFE000
FFF800
FFFE00
FFFF00
FFFFC0
FFFFF0
FFFFFC
FFFFF0
FFFFE0
FFFF80
FFFE00
FFFC00
FFF000
FFE000
FF8000
FE0000
FC0000
F00000
C00000
800000
ENDCHAR
STARTCHAR 0045
ENCODING 69
SWIDTH 947 0
DWIDTH 25 0
BBX 25 25 0 -4
BITMAP
003E0000
01FFC000
03FFF000
0FFFF800
1FFFFC00
1FFFFE00
3FFFFE00
7FE3FF00
7F80FF00
7F007F80
FF003F80
FE003F80
FE003F80
FE003F80
FE003F80
7F007F80
7F807F80
7FC1FF00
3FFFFF00
3FFFFE00
1FFFFC00
0FFFFC00
07FFF000
03FFE000
007F8000
ENDCHAR
STARTCHAR 0046
ENCODING 70
SWIDTH 947 0
DWIDTH 25 0
BBX 25 25 0 -4
BITMAP
FFFFFF80
FFFFFF80
FFFFFF80
FFFFFF80
FFFFFF80
FFFFFF80
FFFFFF80
FFFFFF80
FFFFFF80
FFFFFF80
FFFFFF80
FFFFFF80
FFFFFF80
FFFFFF80
FFFFFF80
FFFFFF80
FFFFFF80
FFFFFF80
FFFFFF80
FFFFFF80
FFFFFF80
FFFFFF80
FFFFFF80
FFFFFF80
FFFFFF80
ENDCHAR
STARTCHAR 0047
ENCODING 71
SWIDTH 947 0
DWIDTH 25 0
BBX 22 27 2 -5
BITMAP
F80004
F8000C
F8003C
F8007C
F801FC
F807FC
F80FFC
F83FFC
F8FFFC
F9FFFC
FFFFFC
FFFFFC
FFFFFC
FFFFFC
FFFFFC
FFFFFC
FFFFFC
FBFFFC
F8FFFC
F87FFC
F81FFC
F80FFC
F803FC
F800FC
F8007C
F8001C
F80004
ENDCHAR
STARTCHAR 0048
ENCODING 72
SWIDTH 947 0
DWIDTH 25 0
BBX 25 24 0 -4
BITMAP
00010080
00030180
000F0780
001F0F80
003F1F80
00FF7F80
01FEFF80
03FDFF80
07F7FF80
1FEFFF80
3FDFFF80
FF7FFF80
7FBFFF80
1FCFFF80
0FF7FF80
07FBFF80
01FDFF80
00FF7F80
007F3F80
001F1F80
000F0780
00070380
00010180
00008080
ENDCHAR
STARTCHAR 0049
ENCODING 73
SWIDTH 947 0
DWIDTH 25 0
BBX 25 25 0 -4
BITMAP
E8000000
E6000000
E7000000
E7000000
E7300000
E7380000
E73E0000
E73F8000
E73FC000
E73FF000
E73FF800
E73FFE00
E73FFF80
E73FFF00
E73FFC00
E73FF800
E73FE000
E73F8000
E73F0000
E73C0000
E7300000
E7200000
E7000000
E7000000
E4000000
ENDCHAR
STARTCHAR 004A
ENCODING 74
SWIDTH 947 0
DWIDTH 25 0
BBX 25 24 0 -4
BITMAP
00080000
001C0000
003E0000
003F0000
007F0000
00FF8000
01FFC000
01FFE000
03FFF000
07FFF000
0FFFF800
0FFFFC00
1FFFFE00
3FFFFE00
7FFFFF00
FFFFFF80
00000000
00000000
FFFFFF80
FFFFFF80
FFFFFF80
FFFFFF80
FFFFFF80
FFFFFF80
ENDCHAR
STARTCHAR 004B
ENCODING 75
SWIDTH 947 0
DWIDTH 25 0
BBX 25 25 0 -4
BITMAP
00000C00
00001C00
00001C00
00003C00
00003800
00007800
0000F000
0000F000
3FFFE000
7FFFE000
FFFFE000
1FFFF000
007FF000
000FF800
000FFC00
001EFC00
001C7E00
00383E00
00781F00
03F00F00
07F00F80
03F00780
00780300
00380100
00100000
ENDCHAR
STARTCHAR 004C
ENCODING 76
SWIDTH 947 0
DWIDTH 25 0
BBX 21 27 2 -5
BITMAP
000080
000080
0000C0
01F8C0
0FFFE0
1FFFE0
3FFFF0
701FF0
C00FF0
000FF8
001FF8
001FC0
002000
000000
000000
00E000
FFC000
FFC000
7F8008
7F8010
3FE0F0
3FFFE0
3FFFC0
1FFF00
180000
080000
080000
ENDCHAR
STARTCHAR 004D
ENCODING 77
SWIDTH 947 0
DWIDTH 25 0
BBX 25 21 0 -2
BITMAP
00FC0000
07FF0000
0FFFC000
1F8FE000
3E01E000
3800F000
78007800
70003800
F0023800
E001FF80
E000FF00
E0007E00
F0007C00
70003800
70001000
78000000
3C000000
1F030000
0FFF0000
07FF8000
01FE0000
ENDCHAR
STARTCHAR 004E
ENCODING 78
SWIDTH 947 0
DWIDTH 25 0
BBX 25 18 0 -1
BITMAP
00000700
00000F80
00001F80
00003F80
00007F00
3000FE00
7801FC00
FC03F800
FE07F000
7F0FE000
3F9FC000
1FFF8000
0FFF0000
07FE0000
03FC0000
01F80000
00F00000
00600000
ENDCHAR
STARTCHAR 004F
ENCODING 79
SWIDTH 947 0
DWIDTH 25 0
BBX 25 25 0 -4
BITMAP
38000000
7FC00000
FFF00000
FFFC0000
7FFF0000
01FF8000
003FC000
000FE000
7F07F000
FFC3F800
FFF0F800
7FF8FC00
0FFC7E00
00FE3E00
007E3F00
003F1F00
001F1F00
3E0F8F00
7F0F8F80
FF078F80
FF87CF80
FF87CF80
7F07CF80
7F07C780
3E038700
ENDCHAR
STARTCHAR 0050
ENCODING 80
SWIDTH 947 0
DWIDTH 25 0
BBX 23 27 1 -5
BITMAP
001000
01FF00
03FF80
07FFE0
0FE7E0
1F01F0
1E00F8
3E0078
3C0078
3C0078
3C0078
3C0078
FFFFFE
FFFFFE
FFFFFE
FFFFFE
FFC7FE
FFC7FE
FFC7FE
FFE7FE
FFE7FE
FFE7FE
FFC7FE
FFC7FE
FFFFFE
FFFFFE
FFFFFE
ENDCHAR
STARTCHAR 0051
ENCODING 81
SWIDTH 947 0
DWIDTH 25 0
BBX 25 25 0 -4
BITMAP
07FFF000
07FFF000
07FFF000
07FFF000
07FFF000
07FFF000
07FFF000
07FFF000
07FFF000
000C0000
000C0000
000C0000
000C0000
07FFF800
04000800
04000800
04000800
FFE1FF80
FFE1FF80
FFE1FF80
FFE1FF80
FFE1FF80
FFE1FF80
FFE1FF80
FFE1FF80
ENDCHAR
STARTCHAR 0052
ENCODING 82
SWIDTH 947 0
DWIDTH 25 0
BBX 25 15 0 1
BITMAP
00200000
00300000
00380000
0FFEFC00
3FFFFE00
7FFEFF00
78380780
F0300380
E0200380
E0000380
F0000380
78000780
7FFFFF00
3FFFFE00
0FFFFC00
ENDCHAR
STARTCHAR 0053
ENCODING 83
SWIDTH 947 0
DWIDTH 25 0
BBX 25 21 0 -2
BITMAP
0000C000
0001E000
0003F000
0007F800
FFEFFC00
FFDFFE00
FFBFFF00
FFBFFF80
F879E780
F7AFED00
FFFFEF80
EFFFEF80
EFFFEF80
EFFFEF00
DFFFEF00
DFFFEF00
DFFEEE00
FFFF1E00
BFFFFE00
3FFFFE00
3FFFFC00
ENDCHAR
STARTCHAR 0054
ENCODING 84
SWIDTH 947 0
DWIDTH 25 0
BBX 25 25 0 -4
BITMAP
003E0000
01FFC000
07FFF000
0FFFF800
1FC0FC00
3F003E00
3F001E00
7F800F00
79C00F00
78E00780
F0700780
F0380780
F01C0780
F00E0780
F0070780
F0038780
7801C780
7800EF00
3C007F00
3E003E00
1F807C00
0FFFFC00
07FFF000
03FFE000
00FF8000
ENDCHAR
STARTCHAR 0055
ENCODING 85
SWIDTH 947 0
DWIDTH 25 0
BBX 25 22 0 -3
BITMAP
000C0000
001C0000
003C0000
007C0000
00FC0000
01FC0000
FFFC0000
FFFC0000
FFFC0000
FFFCFF80
FFFCFF80
FFFCFF80
FFFC0000
FFFC0000
FFFC0000
01FC0000
00FC0000
007C0000
003C0000
001C0000
000C0000
00080000
ENDCHAR
STARTCHAR 0056
ENCODING 86
SWIDTH 947 0
DWIDTH 25 0
BBX 25 23 0 -3
BITMAP
00040000
000C0000
001C0000
003C0000
007C0000
00FC0000
01FC0000
FFFC1C00
FFFC1C00
FFFC1C00
FFFCFF80
FFFCFF80
FFFCFF80
FFFC1C00
FFFC1C00
FFFC1C00
01FC0000
00FC0000
007C0000
003C0000
001C0000
000C0000
00040000
ENDCHAR
STARTCHAR 0057
ENCODING 87
SWIDTH 947 0
DWIDTH 25 0
BBX 25 24 0 -4
BITMAP
1F80FE00
3FE1FF00
7FE3FF00
FFF7FF80
FFFFFF80
FFFFFF80
FFFFFF80
7FFFFF80
7FFFFF00
3FFFFF00
1FFFFE00
1FFFFC00
0FFFF800
07FFF000
03FFE000
01FFC000
007F8000
007F8000
003F0000
001E0000
000C0000
000C0000
00080000
00080000
ENDCHAR
STARTCHAR 0058
ENCODING 88
SWIDTH 947 0
DWIDTH 25 0
BBX 21 27 2 -5
BITMAP
020000
070000
070000
070000
070000
070000
070000
070000
077000
077300
077398
4773B8
E777B8
E7FFF8
E7FFF8
E7FFF8
E7FFF8
FFFFF8
FFFFF8
FFFFF8
7FFFF8
3FFFF8
3FFFF8
1FFFF8
0FFFF8
0FFFF8
07FFF0
ENDCHAR
STARTCHAR 0059
ENCODING 89
SWIDTH 947 0
DWIDTH 25 0
BBX 19 27 3 -5
BITMAP
004000
00E000
00E000
0EE600
0EEE00
0EEE00
0EEE60
0EEE60
0EEE60
0EEE60
0EEE60
0EEE60
0EEE60
EEEEE0
EFFFE0
EFFFE0
EFFFE0
EFFFE0
FFFFE0
FFFFE0
7FFFE0
7FFFE0
3FFFE0
1FFFE0
1FFFE0
0FFFE0
07FFC0
ENDCHAR
STARTCHAR 005A
ENCODING 90
SWIDTH 947 0
DWIDTH 25 0
BBX 25 25 0 -4
BITMAP
00000C00
00020E00
00060600
000E0600
001E6300
003E6300
007E3300
00FE3380
FFFE3380
FFFE3B80
FFFE3980
FFFE3980
FFFE3980
FFFE3980
FFFE3980
FFFE3980
FFFE3380
FFFE3380
00FE3300
00FE3300
007E6300
003E4700
001E0600
000E0600
00060C00
ENDCHAR
STARTCHAR 005B
ENCODING 91
SWIDTH 947 0
DWIDTH 25 0
BBX 25 25 0 -4
BITMAP
80000000
E0000000
F8000000
FE000000
FF800000
FFE00000
FFF80000
FFFE0000
FFFF8000
FFFFE000
FFFFF800
FFFFFE00
FFFFFF80
FFFFFE00
FFFFF800
FFFFE000
FFFF8000
FFFE0000
FFF80000
FFE00000
FF800000
FE000000
F8000000
E0000000
80000000
ENDCHAR
STARTCHAR 005C
ENCODING 92
SWIDTH 947 0
DWIDTH 25 0
BBX 25 25 0 -4
BITMAP
FFFFFF80
7FFFFF80
7FFFFF00
3FFFFF00
3FFFFE00
1FFFFE00
1FFFFC00
0FFFFC00
0FFFF800
07FFF800
07FFF000
03FFF000
03FFE000
01FFE000
01FFC000
00FFC000
00FF8000
007F8000
007F0000
003F0000
003E0000
001E0000
001C0000
000C0000
00080000
ENDCHAR
STARTCHAR 005D
ENCODING 93
SWIDTH 947 0
DWIDTH 25 0
BBX 25 25 0 -4
BITMAP
00000080
00000180
00000780
00001F80
00007F80
0001FF80
0007FF80
001FFF80
007FFF80
01FFFF80
07FFFF80
1FFFFF80
FFFFFF80
3FFFFF80
0FFFFF80
03FFFF80
00FFFF80
003FFF80
000FFF80
0003FF80
0000FF80
00003F80
00000F80
00000380
00000080
ENDCHAR
STARTCHAR 005E
ENCODING 94
SWIDTH 947 0
DWIDTH 25 0
BBX 25 9 0 4
BITMAP
08000800
10000400
30000600
70000300
FFFFFF80
7FFFFF00
30000200
10000400
08000400
ENDCHAR
STARTCHAR 005F
ENCODING 95
SWIDTH 947 0
DWIDTH 25 0
BBX 9 27 8 -5
BITMAP
0800
0C00
1E00
3F00
DD80
1C00
1C00
1C00
1C00
1C00
1C00
1C00
1C00
1C00
1C00
1C00
1C00
1C00
1C00
1C00
1C00
1C00
9C80
7F00
3E00
1C00
0800
ENDCHAR
STARTCHAR 0060
ENCODING 96
SWIDTH 947 0
DWIDTH 25 0
BBX 10 27 8 -5
BITMAP
0C00
0C00
0C00
0C00
0C00
0C00
0C00
0C00
0C00
0C00
0C00
0C00
0C00
0C00
0C00
0C00
0C00
0C00
0C00
0C00
0C00
0C00
8CC0
7F00
3E00
1C00
0800
ENDCHAR
STARTCHAR 0061
ENCODING 97
SWIDTH 947 0
DWIDTH 25 0
BBX 25 14 0 1
BITMAP
00000400
00780C00
03FF0C00
07FFDC00
0FFFFE00
1FFFFE00
1FFFFE00
380FFE00
6003FF00
4003FF00
8007FF00
0007FF80
000FFF80
003FFF80
ENDCHAR
STARTCHAR 0062
ENCODING 98
SWIDTH 947 0
DWIDTH 25 0
BBX 25 14 0 1
BITMAP
08000000
08020000
1C3FE000
1CFFF000
1FFFF800
1FFFFC00
3FFFFE00
3FF80E00
3FE00300
3FE00100
7FF00080
7FF80000
7FFC0000
FFFE0000
ENDCHAR
STARTCHAR 0063
ENCODING 99
SWIDTH 947 0
DWIDTH 25 0
BBX 25 26 0 -6
BITMAP
003E0000
003F0000
003F0000
003F0000
003F0000
003F0000
003F0000
003F0000
003F0000
003F0000
003F0000
003F0000
703F0780
FC3F1F80
FF3F7F80
7FFFFF80
3FFFFF00
1FFFFE00
0FFFFC00
07FFF800
03FFF000
01FFE000
00FFC000
007F8000
003F0000
001E0000
ENDCHAR
STARTCHAR 0064
ENCODING 100
SWIDTH 947 0
DWIDTH 25 0
BBX 25 25 0 -4
BITMAP
00000800
00001E00
00003F00
30007F80
7800FF80
FC01FF80
FC03FF00
FC07FE00
FE0FFC00
FE1FF800
FE3FF000
FF7FE000
FFFFC000
FFFF8000
FFFF0000
FFFE0000
FFFC0000
FFFC0000
FFFF8000
FFFFF000
FFFFFC00
FFFFFE00
FFFFFE00
7FFFFC00
3FFFF800
ENDCHAR
STARTCHAR 0065
ENCODING 101
SWIDTH 947 0
DWIDTH 25 0
BBX 25 25 0 -4
BITMAP
08000000
1E000000
3F000000
7F800700
FFC00F80
7FE00F80
7FF01F80
3FF81F80
1FFC1F80
0FFE3F80
07FF3F80
01FFBF80
00FFFF80
007FFF80
003FFF80
001FFF80
000FFF80
000FFF80
007FFF80
03FFFF80
0FFFFF80
1FFFFF80
1FFFFF80
1FFFFF80
0FFFFF00
ENDCHAR
STARTCHAR 0066
ENCODING 102
SWIDTH 947 0
DWIDTH 25 0
BBX 25 24 0 -4
BITMAP
00380000
007C0000
00FC0000
01F80000
03F80000
07F00000
0FF00000
1FE00000
3FE00000
7FFFFF80
7FFFFF80
FFFFFF80
FFFFFF80
7FFFFF80
3FFFFF80
1FE00000
0FF00000
07F00000
03F80000
01F80000
00FC0000
007C0000
003C0000
00100000
ENDCHAR
STARTCHAR 0067
ENCODING 103
SWIDTH 947 0
DWIDTH 25 0
BBX 25 23 0 -3
BITMAP
000E0000
000F0000
000F8000
000FC000
000FE000
0007F000
0007F800
0003FC00
0003FE00
7FFFFF00
FFFFFF80
FFFFFF80
FFFFFF80
FFFFFF80
7FFFFF00
0003FE00
0003FC00
0007F800
0007F000
000FE000
000FC000
000F8000
000F0000
ENDCHAR
STARTCHAR 0068
ENCODING 104
SWIDTH 947 0
DWIDTH 25 0
BBX 25 27 0 -5
BITMAP
00080000
001E0000
003F0000
007F8000
00FFC000
01FFE000
03FFF000
07FFF800
0FFFFC00
1FFFFE00
3FFFFF00
7FFFFF80
FF3F7F80
FC3F1F80
703F0780
003F0000
003F0000
003F0000
003F0000
003F0000
003F0000
003F0000
003F0000
003F0000
003F0000
003F0000
003F0000
ENDCHAR
STARTCHAR 0069
ENCODING 105
SWIDTH 947 0
DWIDTH 25 0
BBX 25 25 0 -4
BITMAP
3FFFF800
7FFFFE00
FFFFFE00
FFFFFE00
FFFFFC00
FFFFF000
FFFFC000
FFFE0000
FFF80000
FFFC0000
FFFE0000
FFFF0000
FFFF8000
FFFFC000
FF7FE000
FE3FF000
FE1FF800
FE0FFC00
FC07FE00
FC03FF00
FC01FF80
7800FF80
30007F80
00003F00
00001E00
ENDCHAR
STARTCHAR 006A
ENCODING 106
SWIDTH 947 0
DWIDTH 25 0
BBX 25 25 0 -4
BITMAP
0FFFFF00
1FFFFF80
3FFFFF80
3FFFFF80
1FFFFF80
07FFFF80
00FFFF80
001FFF80
000FFF80
001FFF80
003FFF80
007FFF80
00FFFF80
01FFFF80
03FF3F80
07FE3F80
0FFC3F80
1FF81F80
3FF01F80
7FE01F80
FFC00F80
FF800F80
7F000600
3E000000
1C000000
ENDCHAR
STARTCHAR 006B
ENCODING 107
SWIDTH 947 0
DWIDTH 25 0
BBX 25 22 0 -3
BITMAP
00020000
00030000
00038000
0003C000
0003E000
007FF000
03FFF800
0FFFFC00
1FFFFE00
3FFFFF00
3FFFFF80
7FFFFF00
7E07FE00
780FF800
F00FE000
E00F8000
E00F0000
C00C0000
C0100000
80000000
80000000
80000000
ENDCHAR
STARTCHAR 006C
ENCODING 108
SWIDTH 1061 0
DWIDTH 28 0
BBX 28 24 0 -4
BITMAP
00080000
00100000
00300000
00700000
00F00000
01F00000
03FFF000
07FFFC00
0FFFFF00
1FFFFF80
3FFFFFC0
FFFFFFC0
7FFFFFE0
1FFC0FE0
0FFC03E0
03FC01E0
00FC00F0
003E0070
001E0070
00060030
00020030
00000010
00000010
00000010
ENDCHAR
STARTCHAR 006D
ENCODING 109
SWIDTH 947 0
DWIDTH 25 0
BBX 22 27 2 -5
BITMAP
03FE00
03FE00
03FE00
03FE00
03FE00
03FE00
03FE00
03FE00
03FE00
03FE00
03FE00
03FE00
03FE00
03FE00
03FE00
FFFFFC
7FFFF8
3FFFF0
1FFFE0
0FFFC0
07FF80
07FF00
03FE00
01FC00
00F800
007000
002000
ENDCHAR
STARTCHAR 006E
ENCODING 110
SWIDTH 947 0
DWIDTH 25 0
BBX 25 21 0 -2
BITMAP
00100000
00200000
00600000
00E00000
01E00000
03E00000
07FFFF80
0FFFFF80
1FFFFF80
7FFFFF80
FFFFFF80
7FFFFF80
3FFFFF80
1FFFFF80
0FFFFF80
07E00000
03E00000
00E00000
00600000
00200000
00100000
ENDCHAR
STARTCHAR 006F
ENCODING 111
SWIDTH 947 0
DWIDTH 25 0
BBX 25 21 0 -2
BITMAP
00020000
00020000
00030000
00038000
0003C000
0003F000
FFFFF800
FFFFFC00
FFFFFE00
FFFFFF00
FFFFFF80
FFFFFF00
FFFFFE00
FFFFFC00
FFFFF800
0003F000
0003E000
0003C000
00038000
00030000
00020000
ENDCHAR
STARTCHAR 0070
ENCODING 112
SWIDTH 947 0
DWIDTH 25 0
BBX 22 27 2 -5
BITMAP
002000
003000
007800
00FC00
01FC00
03FE00
07FF00
0FFF80
1FFFC0
3FFFE0
7FFFF0
FFFFF8
03FE04
03FE00
03FE00
03FE00
03FE00
03FE00
03FE00
03FE00
03FE00
03FE00
03FE00
03FE00
03FE00
03FE00
03FE00
ENDCHAR
STARTCHAR 0071
ENCODING 113
SWIDTH 947 0
DWIDTH 25 0
BBX 23 27 1 -5
BITMAP
000100
000180
000180
0003C0
0003C0
0007E0
000FE0
000FF0
F81FF8
F81FF8
F83FFC
F83FFC
F87FFE
F803C0
F803C0
F803C0
F803C0
F803C0
F803C0
F803C0
7807C0
7C0F80
7E1F80
3FFF00
1FFE00
0FFC00
03F000
ENDCHAR
STARTCHAR 0072
ENCODING 114
SWIDTH 947 0
DWIDTH 25 0
BBX 25 21 0 -2
BITMAP
00100000
00700000
00F00000
03F00000
0FF00000
3FFFF000
FFFFFC00
7FFFFE00
1FFFFF00
07F01F00
01F00F80
00F00780
00300780
00100780
00000780
00000F80
00000F00
01FFFF00
01FFFE00
01FFFC00
01FFF800
ENDCHAR
STARTCHAR 0073
ENCODING 115
SWIDTH 947 0
DWIDTH 25 0
BBX 25 20 0 -2
BITMAP
007F8000
03FFF000
0FFFF800
1FFFFE00
3FFFFF00
7FFFFF00
FFFFFF80
FFFFFF80
FFFFFF80
FFFFFF80
7FFFFF80
7FFFFF00
3FFFFF00
1FFFFE00
0FFFF800
03FFE000
007E0000
00700000
00E00000
01000000
ENDCHAR
STARTCHAR 0074
ENCODING 116
SWIDTH 947 0
DWIDTH 25 0
BBX 25 21 0 -2
BITMAP
7FFFFF00
FFFFFF80
FFFFFF80
FFFFFF80
FFFFFF80
FFFFFF80
FFFFFF80
FFFFFF80
FFFFFF80
FFFFFF80
FFFFFF80
FFFFFF80
FFFFFF80
FFFFFF80
FFFFFF80
FFFFFF80
001C0000
00380000
00300000
00600000
00400000
ENDCHAR
STARTCHAR 0075
ENCODING 117
SWIDTH 947 0
DWIDTH 25 0
BBX 25 20 0 -2
BITMAP
00FF8000
07FFF000
0FFFFC00
3FFFFE00
7FFFFF00
7FFFFF00
FFFFFF80
FFFFFF80
FFFFFF80
FFFFFF80
FFFFFF80
7FFFFF00
3FFFFF00
1FFFFE00
0FFFF800
03FFE000
003F0000
00070000
00018000
00006000
ENDCHAR
STARTCHAR 0076
ENCODING 118
SWIDTH 947 0
DWIDTH 25 0
BBX 25 21 0 -2
BITMAP
7FFFFF00
FFFFFF80
FFFFFF80
FFFFFF80
FFFFFF80
FFFFFF80
FFFFFF80
FFFFFF80
FFFFFF80
FFFFFF80
FFFFFF80
FFFFFF80
FFFFFF80
FFFFFF80
FFFFFF80
FFFFFF80
001E0000
000E0000
00060000
00010000
00008000
ENDCHAR
STARTCHAR 0077
ENCODING 119
SWIDTH 947 0
DWIDTH 25 0
BBX 25 25 0 -4
BITMAP
000C0000
001E0000
003E0000
0E3E1800
1FFF7C00
1FFFFC00
1FFFFC00
0FFFF800
0FFFF000
0FC1F800
3F80FE00
7F80FF80
FF807F80
FF807F80
7F80FF00
0FC0F000
0FE3F000
0FFFF800
0FFFFC00
1FFFFC00
1F7F7C00
0E3E3C00
003E0000
003E0000
001C0000
ENDCHAR
STARTCHAR 0078
ENCODING 120
SWIDTH 947 0
DWIDTH 25 0
BBX 25 21 0 -2
BITMAP
02000000
36000000
3FC00000
FFC00000
F1830000
31C79800
73C7BC00
7F07FC00
1F7FF800
197FFF00
003E3F80
003C1F80
003C1F00
007C1C00
00FE1E00
007FFF00
000FFF00
000FF300
000FF000
000E7000
00007000
ENDCHAR
STARTCHAR 0079
ENCODING 121
SWIDTH 947 0
DWIDTH 25 0
BBX 25 22 0 -2
BITMAP
01FC1C00
03FE7F00
07C17800
0FC07880
1FC0FF00
3FE0FF00
F8F1FC00
F879F800
783FFC00
101FC000
001F8000
003FC000
007FE000
00F9F000
03F0F800
07E07C00
0FC03E00
1F803F00
3F001F80
3E000F80
3C000700
00000200
ENDCHAR
STARTCHAR 007A
ENCODING 122
SWIDTH 947 0
DWIDTH 25 0
BBX 25 25 0 -4
BITMAP
00010000
00020000
00060000
000E0000
000E0000
001C0000
001C0000
001C0000
001C0000
001C0000
00380380
1E387E00
3FBFFC00
77FFF800
E3FFC000
E7F80000
FF700000
7EFC0000
09FC0000
01CC0000
01CC0000
018C0000
01FC0000
01F80000
00F00000
ENDCHAR
STARTCHAR 007B
ENCODING 123
SWIDTH 947 0
DWIDTH 25 0
BBX 25 23 0 -3
BITMAP
00007800
00007800
00003C00
00002E00
00000600
00000700
00000300
00000380
00000180
00000180
00000180
C0000180
C0000180
E0000180
60000380
60000300
70000700
38000600
1C000E00
1E003C00
0F80F800
03FFE000
00FFC000
ENDCHAR
STARTCHAR 007C
ENCODING 124
SWIDTH 947 0
DWIDTH 25 0
BBX 25 24 0 -4
BITMAP
0F800000
07000000
0F000000
1D000000
38000000
70000000
70000000
60000000
E0000000
C0000000
C0000000
C0000180
C0000180
E0000180
60000380
60000300
70000700
38000600
1C000E00
1E001C00
0F807800
03FFF000
00FFC000
00080000
ENDCHAR
STARTCHAR 007D
ENCODING 125
SWIDTH 492 0
DWIDTH 13 0
BBX 0 0 0 0
BITMAP
ENDCHAR
STARTCHAR 007E
ENCODING 126
SWIDTH 492 0
DWIDTH 13 0
BBX 0 0 0 0
BITMAP
ENDCHAR
STARTCHAR 00A0
ENCODING 160
SWIDTH 227 0
DWIDTH 6 0
BBX 0 0 0 0
BITMAP
ENDCHAR
STARTCHAR 00A1
ENCODING 161
SWIDTH 341 0
DWIDTH 9 0
BBX 0 0 0 0
BITMAP
ENDCHAR
STARTCHAR 00A2
ENCODING 162
SWIDTH 530 0
DWIDTH 14 0
BBX 0 0 0 0
BITMAP
ENDCHAR
STARTCHAR 00A3
ENCODING 163
SWIDTH 492 0
DWIDTH 13 0
BBX 0 0 0 0
BITMAP
ENDCHAR
STARTCHAR 00A4
ENCODING 164
SWIDTH 492 0
DWIDTH 13 0
BBX 0 0 0 0
BITMAP
ENDCHAR
STARTCHAR 00A5
ENCODING 165
SWIDTH 606 0
DWIDTH 16 0
BBX 0 0 0 0
BITMAP
ENDCHAR
STARTCHAR 00A6
ENCODING 166
SWIDTH 492 0
DWIDTH 13 0
BBX 0 0 0 0
BITMAP
ENDCHAR
STARTCHAR 00A7
ENCODING 167
SWIDTH 492 0
DWIDTH 13 0
BBX 0 0 0 0
BITMAP
ENDCHAR
STARTCHAR 00A8
ENCODING 168
SWIDTH 492 0
DWIDTH 13 0
BBX 0 0 0 0
BITMAP
ENDCHAR
STARTCHAR 00A9
ENCODING 169
SWIDTH 795 0
DWIDTH 21 0
BBX 0 0 0 0
BITMAP
ENDCHAR
STARTCHAR 00AA
ENCODING 170
SWIDTH 303 0
DWIDTH 8 0
BBX 0 0 0 0
BITMAP
ENDCHAR
STARTCHAR 00AB
ENCODING 171
SWIDTH 454 0
DWIDTH 12 0
BBX 0 0 0 0
BITMAP
ENDCHAR
STARTCHAR 00AC
ENCODING 172
SWIDTH 492 0
DWIDTH 13 0
BBX 0 0 0 0
BITMAP
ENDCHAR
STARTCHAR 00AD
ENCODING 173
SWIDTH 947 0
DWIDTH 25 0
BBX 25 25 0 -4
BITMAP
003E0000
01FFC000
0780F000
0E003800
1C000C00
3C008600
32018300
61038300
60C78100
400F8180
C0FF8180
C0FF8180
C0FF8080
C0FF8080
C0FF8180
C0FF8180
40078180
6003A300
2001A300
30009600
18000C00
0C001C00
07007800
03E3E000
007F8000
ENDCHAR
STARTCHAR 00AE
ENCODING 174
SWIDTH 795 0
DWIDTH 21 0
BBX 0 0 0 0
BITMAP
ENDCHAR
STARTCHAR 00AF
ENCODING 175
SWIDTH 341 0
DWIDTH 9 0
BBX 0 0 0 0
BITMAP
ENDCHAR
STARTCHAR 00B0
ENCODING 176
SWIDTH 341 0
DWIDTH 9 0
BBX 0 0 0 0
BITMAP
ENDCHAR
STARTCHAR 00B1
ENCODING 177
SWIDTH 492 0
DWIDTH 13 0
BBX 0 0 0 0
BITMAP
ENDCHAR
STARTCHAR 00B2
ENCODING 178
SWIDTH 492 0
DWIDTH 13 0
BBX 0 0 0 0
BITMAP
ENDCHAR
STARTCHAR 00B3
ENCODING 179
SWIDTH 492 0
DWIDTH 13 0
BBX 0 0 0 0
BITMAP
ENDCHAR
STARTCHAR 00B4
ENCODING 180
SWIDTH 492 0
DWIDTH 13 0
BBX 0 0 0 0
BITMAP
ENDCHAR
STARTCHAR 00B5
ENCODING 181
SWIDTH 568 0
DWIDTH 15 0
BBX 0 0 0 0
BITMAP
ENDCHAR
STARTCHAR 00B6
ENCODING 182
SWIDTH 492 0
DWIDTH 13 0
BBX 0 0 0 0
BITMAP
ENDCHAR
STARTCHAR 00B7
ENCODING 183
SWIDTH 227 0
DWIDTH 6 0
BBX 0 0 0 0
BITMAP
ENDCHAR
STARTCHAR 00B8
ENCODING 184
SWIDTH 492 0
DWIDTH 13 0
BBX 0 0 0 0
BITMAP
ENDCHAR
STARTCHAR 00B9
ENCODING 185
SWIDTH 492 0
DWIDTH 13 0
BBX 0 0 0 0
BITMAP
ENDCHAR
STARTCHAR 00BA
ENCODING 186
SWIDTH 341 0
DWIDTH 9 0
BBX 0 0 0 0
BITMAP
ENDCHAR
STARTCHAR 00BB
ENCODING 187
SWIDTH 454 0
DWIDTH 12 0
BBX 0 0 0 0
BITMAP
ENDCHAR
STARTCHAR 00BC
ENCODING 188
SWIDTH 833 0
DWIDTH 22 0
BBX 0 0 0 0
BITMAP
ENDCHAR
STARTCHAR 00BD
ENCODING 189
SWIDTH 947 0
DWIDTH 25 0
BBX 0 0 0 0
BITMAP
ENDCHAR
STARTCHAR 00BE
ENCODING 190
SWIDTH 833 0
DWIDTH 22 0
BBX 0 0 0 0
BITMAP
ENDCHAR
STARTCHAR 00BF
ENCODING 191
SWIDTH 378 0
DWIDTH 10 0
BBX 0 0 0 0
BITMAP
ENDCHAR
STARTCHAR 00C0
ENCODING 192
SWIDTH 757 0
DWIDTH 20 0
BBX 0 0 0 0
BITMAP
ENDCHAR
STARTCHAR 00C1
ENCODING 193
SWIDTH 757 0
DWIDTH 20 0
BBX 0 0 0 0
BITMAP
ENDCHAR
STARTCHAR 00C2
ENCODING 194
SWIDTH 757 0
DWIDTH 20 0
BBX 0 0 0 0
BITMAP
ENDCHAR
STARTCHAR 00C3
ENCODING 195
SWIDTH 757 0
DWIDTH 20 0
BBX 0 0 0 0
BITMAP
ENDCHAR
STARTCHAR 00C4
ENCODING 196
SWIDTH 757 0
DWIDTH 20 0
BBX 0 0 0 0
BITMAP
ENDCHAR
STARTCHAR 00C5
ENCODING 197
SWIDTH 757 0
DWIDTH 20 0
BBX 0 0 0 0
BITMAP
ENDCHAR
STARTCHAR 00C6
ENCODING 198
SWIDTH 1023 0
DWIDTH 27 0
BBX 0 0 0 0
BITMAP
ENDCHAR
STARTCHAR 00C7
ENCODING 199
SWIDTH 682 0
DWIDTH 18 0
BBX 0 0 0 0
BITMAP
ENDCHAR
STARTCHAR 00C8
ENCODING 200
SWIDTH 568 0
DWIDTH 15 0
BBX 0 0 0 0
BITMAP
ENDCHAR
STARTCHAR 00C9
ENCODING 201
SWIDTH 568 0
DWIDTH 15 0
BBX 0 0 0 0
BITMAP
ENDCHAR
STARTCHAR 00CA
ENCODING 202
SWIDTH 568 0
DWIDTH 15 0
BBX 0 0 0 0
BITMAP
ENDCHAR
STARTCHAR 00CB
ENCODING 203
SWIDTH 568 0
DWIDTH 15 0
BBX 0 0 0 0
BITMAP
ENDCHAR
STARTCHAR 00CC
ENCODING 204
SWIDTH 303 0
DWIDTH 8 0
BBX 0 0 0 0
BITMAP
ENDCHAR
STARTCHAR 00CD
ENCODING 205
SWIDTH 303 0
DWIDTH 8 0
BBX 0 0 0 0
BITMAP
ENDCHAR
STARTCHAR 00CE
ENCODING 206
SWIDTH 303 0
DWIDTH 8 0
BBX 0 0 0 0
BITMAP
ENDCHAR
STARTCHAR 00CF
ENCODING 207
SWIDTH 303 0
DWIDTH 8 0
BBX 0 0 0 0
BITMAP
ENDCHAR
STARTCHAR 00D0
ENCODING 208
SWIDTH 720 0
DWIDTH 19 0
BBX 0 0 0 0
BITMAP
ENDCHAR
STARTCHAR 00D1
ENCODING 209
SWIDTH 757 0
DWIDTH 20 0
BBX 0 0 0 0
BITMAP
ENDCHAR
STARTCHAR 00D2
ENCODING 210
SWIDTH 757 0
DWIDTH 20 0
BBX 0 0 0 0
BITMAP
ENDCHAR
STARTCHAR 00D3
ENCODING 211
SWIDTH 757 0
DWIDTH 20 0
BBX 0 0 0 0
BITMAP
ENDCHAR
STARTCHAR 00D4
ENCODING 212
SWIDTH 757 0
DWIDTH 20 0
BBX 0 0 0 0
BITMAP
ENDCHAR
STARTCHAR 00D5
ENCODING 213
SWIDTH 757 0
DWIDTH 20 0
BBX 0 0 0 0
BITMAP
ENDCHAR
STARTCHAR 00D6
ENCODING 214
SWIDTH 757 0
DWIDTH 20 0
BBX 0 0 0 0
BITMAP
ENDCHAR
STARTCHAR 00D7
ENCODING 215
SWIDTH 492 0
DWIDTH 13 0
BBX 0 0 0 0
BITMAP
ENDCHAR
STARTCHAR 00D8
ENCODING 216
SWIDTH 757 0
DWIDTH 20 0
BBX 0 0 0 0
BITMAP
ENDCHAR
STARTCHAR 00D9
ENCODING 217
SWIDTH 720 0
DWIDTH 19 0
BBX 0 0 0 0
BITMAP
ENDCHAR
STARTCHAR 00DA
ENCODING 218
SWIDTH 720 0
DWIDTH 19 0
BBX 0 0 0 0
BITMAP
ENDCHAR
STARTCHAR 00DB
ENCODING 219
SWIDTH 720 0
DWIDTH 19 0
BBX 0 0 0 0
BITMAP
ENDCHAR
STARTCHAR 00DC
ENCODING 220
SWIDTH 720 0
DWIDTH 19 0
BBX 0 0 0 0
BITMAP
ENDCHAR
STARTCHAR 00DD
ENCODING 221
SWIDTH 606 0
DWIDTH 16 0
BBX 0 0 0 0
BITMAP
ENDCHAR
STARTCHAR 00DE
ENCODING 222
SWIDTH 530 0
DWIDTH 14 0
BBX 0 0 0 0
BITMAP
ENDCHAR
STARTCHAR 00DF
ENCODING 223
SWIDTH 606 0
DWIDTH 16 0
BBX 0 0 0 0
BITMAP
ENDCHAR
STARTCHAR 00E0
ENCODING 224
SWIDTH 454 0
DWIDTH 12 0
BBX 0 0 0 0
BITMAP
ENDCHAR
STARTCHAR 00E1
ENCODING 225
SWIDTH 454 0
DWIDTH 12 0
BBX 0 0 0 0
BITMAP
ENDCHAR
STARTCHAR 00E2
ENCODING 226
SWIDTH 454 0
DWIDTH 12 0
BBX 0 0 0 0
BITMAP
ENDCHAR
STARTCHAR 00E3
ENCODING 227
SWIDTH 454 0
DWIDTH 12 0
BBX 0 0 0 0
BITMAP
ENDCHAR
STARTCHAR 00E4
ENCODING 228
SWIDTH 454 0
DWIDTH 12 0
BBX 0 0 0 0
BITMAP
ENDCHAR
STARTCHAR 00E5
ENCODING 229
SWIDTH 454 0
DWIDTH 12 0
BBX 0 0 0 0
BITMAP
ENDCHAR
STARTCHAR 00E6
ENCODING 230
SWIDTH 682 0
DWIDTH 18 0
BBX 0 0 0 0
BITMAP
ENDCHAR
STARTCHAR 00E7
ENCODING 231
SWIDTH 416 0
DWIDTH 11 0
BBX 0 0 0 0
BITMAP
ENDCHAR
STARTCHAR 00E8
ENCODING 232
SWIDTH 454 0
DWIDTH 12 0
BBX 0 0 0 0
BITMAP
ENDCHAR
STARTCHAR 00E9
ENCODING 233
SWIDTH 454 0
DWIDTH 12 0
BBX 0 0 0 0
BITMAP
ENDCHAR
STARTCHAR 00EA
ENCODING 234
SWIDTH 454 0
DWIDTH 12 0
BBX 0 0 0 0
BITMAP
ENDCHAR
STARTCHAR 00EB
ENCODING 235
SWIDTH 454 0
DWIDTH 12 0
BBX 0 0 0 0
BITMAP
ENDCHAR
STARTCHAR 00EC
ENCODING 236
SWIDTH 265 0
DWIDTH 7 0
BBX 0 0 0 0
BITMAP
ENDCHAR
STARTCHAR 00ED
ENCODING 237
SWIDTH 265 0
DWIDTH 7 0
BBX 0 0 0 0
BITMAP
ENDCHAR
STARTCHAR 00EE
ENCODING 238
SWIDTH 265 0
DWIDTH 7 0
BBX 0 0 0 0
BITMAP
ENDCHAR
STARTCHAR 00EF
ENCODING 239
SWIDTH 265 0
DWIDTH 7 0
BBX 0 0 0 0
BITMAP
ENDCHAR
STARTCHAR 00F0
ENCODING 240
SWIDTH 530 0
DWIDTH 14 0
BBX 0 0 0 0
BITMAP
ENDCHAR
STARTCHAR 00F1
ENCODING 241
SWIDTH 530 0
DWIDTH 14 0
BBX 0 0 0 0
BITMAP
ENDCHAR
STARTCHAR 00F2
ENCODING 242
SWIDTH 492 0
DWIDTH 13 0
BBX 0 0 0 0
BITMAP
ENDCHAR
STARTCHAR 00F3
ENCODING 243
SWIDTH 492 0
DWIDTH 13 0
BBX 0 0 0 0
BITMAP
ENDCHAR
STARTCHAR 00F4
ENCODING 244
SWIDTH 492 0
DWIDTH 13 0
BBX 0 0 0 0
BITMAP
ENDCHAR
STARTCHAR 00F5
ENCODING 245
SWIDTH 492 0
DWIDTH 13 0
BBX 0 0 0 0
BITMAP
ENDCHAR
STARTCHAR 00F6
ENCODING 246
SWIDTH 492 0
DWIDTH 13 0
BBX 0 0 0 0
BITMAP
ENDCHAR
STARTCHAR 00F7
ENCODING 247
SWIDTH 492 0
DWIDTH 13 0
BBX 0 0 0 0
BITMAP
ENDCHAR
STARTCHAR 00F8
ENCODING 248
SWIDTH 492 0
DWIDTH 13 0
BBX 0 0 0 0
BITMAP
ENDCHAR
STARTCHAR 00F9
ENCODING 249
SWIDTH 492 0
DWIDTH 13 0
BBX 0 0 0 0
BITMAP
ENDCHAR
STARTCHAR 00FA
ENCODING 250
SWIDTH 492 0
DWIDTH 13 0
BBX 0 0 0 0
BITMAP
ENDCHAR
STARTCHAR 00FB
ENCODING 251
SWIDTH 492 0
DWIDTH 13 0
BBX 0 0 0 0
BITMAP
ENDCHAR
STARTCHAR 00FC
ENCODING 252
SWIDTH 492 0
DWIDTH 13 0
BBX 0 0 0 0
BITMAP
ENDCHAR
STARTCHAR 00FD
ENCODING 253
SWIDTH 416 0
DWIDTH 11 0
BBX 0 0 0 0
BITMAP
ENDCHAR
STARTCHAR 00FE
ENCODING 254
SWIDTH 492 0
DWIDTH 13 0
BBX 0 0 0 0
BITMAP
ENDCHAR
STARTCHAR 00FF
ENCODING 255
SWIDTH 416 0
DWIDTH 11 0
BBX 0 0 0 0
BITMAP
ENDCHAR
STARTCHAR 0131
ENCODING 305
SWIDTH 265 0
DWIDTH 7 0
BBX 0 0 0 0
BITMAP
ENDCHAR
STARTCHAR 02C6
ENCODING 710
SWIDTH 492 0
DWIDTH 13 0
BBX 0 0 0 0
BITMAP
ENDCHAR
STARTCHAR 02C7
ENCODING 711
SWIDTH 492 0
DWIDTH 13 0
BBX 0 0 0 0
BITMAP
ENDCHAR
STARTCHAR 02C9
ENCODING 713
SWIDTH 492 0
DWIDTH 13 0
BBX 0 0 0 0
BITMAP
ENDCHAR
STARTCHAR 02D8
ENCODING 728
SWIDTH 492 0
DWIDTH 13 0
BBX 0 0 0 0
BITMAP
ENDCHAR
STARTCHAR 02D9
ENCODING 729
SWIDTH 492 0
DWIDTH 13 0
BBX 0 0 0 0
BITMAP
ENDCHAR
STARTCHAR 02DA
ENCODING 730
SWIDTH 492 0
DWIDTH 13 0
BBX 0 0 0 0
BITMAP
ENDCHAR
STARTCHAR 02DB
ENCODING 731
SWIDTH 492 0
DWIDTH 13 0
BBX 0 0 0 0
BITMAP
ENDCHAR
STARTCHAR 02DC
ENCODING 732
SWIDTH 492 0
DWIDTH 13 0
BBX 0 0 0 0
BITMAP
ENDCHAR
STARTCHAR 02DD
ENCODING 733
SWIDTH 492 0
DWIDTH 13 0
BBX 0 0 0 0
BITMAP
ENDCHAR
STARTCHAR 037E
ENCODING 894
SWIDTH 947 0
DWIDTH 25 0
BBX 25 25 0 -4
BITMAP
000C0000
000C0000
000C0000
000C0000
000C0000
000C0000
000C0000
000C0000
000C0000
000C0000
000C0000
000C0000
FFFFFF80
FFFFFF80
000C0000
000C0000
000C0000
000C0000
000C0000
000C0000
000C0000
000C0000
000C0000
000C0000
000C0000
ENDCHAR
STARTCHAR 2013
ENCODING 8211
SWIDTH 530 0
DWIDTH 14 0
BBX 0 0 0 0
BITMAP
ENDCHAR
STARTCHAR 2014
ENCODING 8212
SWIDTH 985 0
DWIDTH 26 0
BBX 0 0 0 0
BITMAP
ENDCHAR
STARTCHAR 2018
ENCODING 8216
SWIDTH 265 0
DWIDTH 7 0
BBX 0 0 0 0
BITMAP
ENDCHAR
STARTCHAR 2019
ENCODING 8217
SWIDTH 265 0
DWIDTH 7 0
BBX 0 0 0 0
BITMAP
ENDCHAR
STARTCHAR 201A
ENCODING 8218
SWIDTH 265 0
DWIDTH 7 0
BBX 0 0 0 0
BITMAP
ENDCHAR
STARTCHAR 201C
ENCODING 8220
SWIDTH 454 0
DWIDTH 12 0
BBX 0 0 0 0
BITMAP
ENDCHAR
STARTCHAR 201D
ENCODING 8221
SWIDTH 454 0
DWIDTH 12 0
BBX 0 0 0 0
BITMAP
ENDCHAR
STARTCHAR 201E
ENCODING 8222
SWIDTH 454 0
DWIDTH 12 0
BBX 0 0 0 0
BITMAP
ENDCHAR
STARTCHAR 2020
ENCODING 8224
SWIDTH 492 0
DWIDTH 13 0
BBX 0 0 0 0
BITMAP
ENDCHAR
STARTCHAR 2021
ENCODING 8225
SWIDTH 492 0
DWIDTH 13 0
BBX 0 0 0 0
BITMAP
ENDCHAR
STARTCHAR 2022
ENCODING 8226
SWIDTH 492 0
DWIDTH 13 0
BBX 0 0 0 0
BITMAP
ENDCHAR
STARTCHAR 2026
ENCODING 8230
SWIDTH 985 0
DWIDTH 26 0
BBX 0 0 0 0
BITMAP
ENDCHAR
STARTCHAR 2039
ENCODING 8249
SWIDTH 303 0
DWIDTH 8 0
BBX 0 0 0 0
BITMAP
ENDCHAR
STARTCHAR 203A
ENCODING 8250
SWIDTH 303 0
DWIDTH 8 0
BBX 0 0 0 0
BITMAP
ENDCHAR
STARTCHAR 2044
ENCODING 8260
SWIDTH 151 0
DWIDTH 4 0
BBX 0 0 0 0
BITMAP
ENDCHAR
STARTCHAR 20A3
ENCODING 8355
SWIDTH 492 0
DWIDTH 13 0
BBX 0 0 0 0
BITMAP
ENDCHAR
STARTCHAR 20A4
ENCODING 8356
SWIDTH 492 0
DWIDTH 13 0
BBX 0 0 0 0
BITMAP
ENDCHAR
STARTCHAR 20A7
ENCODING 8359
SWIDTH 985 0
DWIDTH 26 0
BBX 0 0 0 0
BITMAP
ENDCHAR
STARTCHAR 20AC
ENCODING 8364
SWIDTH 492 0
DWIDTH 13 0
BBX 0 0 0 0
BITMAP
ENDCHAR
STARTCHAR 2116
ENCODING 8470
SWIDTH 1098 0
DWIDTH 29 0
BBX 0 0 0 0
BITMAP
ENDCHAR
STARTCHAR 2122
ENCODING 8482
SWIDTH 720 0
DWIDTH 19 0
BBX 0 0 0 0
BITMAP
ENDCHAR
STARTCHAR 2202
ENCODING 8706
SWIDTH 492 0
DWIDTH 13 0
BBX 0 0 0 0
BITMAP
ENDCHAR
STARTCHAR 2206
ENCODING 8710
SWIDTH 530 0
DWIDTH 14 0
BBX 0 0 0 0
BITMAP
ENDCHAR
STARTCHAR 220F
ENCODING 8719
SWIDTH 720 0
DWIDTH 19 0
BBX 0 0 0 0
BITMAP
ENDCHAR
STARTCHAR 2211
ENCODING 8721
SWIDTH 568 0
DWIDTH 15 0
BBX 0 0 0 0
BITMAP
ENDCHAR
STARTCHAR 2212
ENCODING 8722
SWIDTH 492 0
DWIDTH 13 0
BBX 0 0 0 0
BITMAP
ENDCHAR
STARTCHAR 2215
ENCODING 8725
SWIDTH 151 0
DWIDTH 4 0
BBX 0 0 0 0
BITMAP
ENDCHAR
STARTCHAR 2219
ENCODING 8729
SWIDTH 227 0
DWIDTH 6 0
BBX 0 0 0 0
BITMAP
ENDCHAR
STARTCHAR 221A
ENCODING 8730
SWIDTH 492 0
DWIDTH 13 0
BBX 0 0 0 0
BITMAP
ENDCHAR
STARTCHAR 221E
ENCODING 8734
SWIDTH 492 0
DWIDTH 13 0
BBX 0 0 0 0
BITMAP
ENDCHAR
STARTCHAR 222B
ENCODING 8747
SWIDTH 303 0
DWIDTH 8 0
BBX 0 0 0 0
BITMAP
ENDCHAR
STARTCHAR 2248
ENCODING 8776
SWIDTH 492 0
DWIDTH 13 0
BBX 0 0 0 0
BITMAP
ENDCHAR
STARTCHAR 2264
ENCODING 8804
SWIDTH 492 0
DWIDTH 13 0
BBX 0 0 0 0
BITMAP
ENDCHAR
STARTCHAR 2265
ENCODING 8805
SWIDTH 492 0
DWIDTH 13 0
BBX 0 0 0 0
BITMAP
ENDCHAR
STARTCHAR F001
ENCODING 61441
SWIDTH 530 0
DWIDTH 14 0
BBX 0 0 0 0
BITMAP
ENDCHAR
STARTCHAR F002
ENCODING 61442
SWIDTH 530 0
DWIDTH 14 0
BBX 0 0 0 0
BITMAP
ENDCHAR
STARTCHAR FB01
ENCODING 64257
SWIDTH 530 0
DWIDTH 14 0
BBX 0 0 0 0
BITMAP
ENDCHAR
STARTCHAR FB02
ENCODING 64258
SWIDTH 530 0
DWIDTH 14 0
BBX 0 0 0 0
BITMAP
ENDCHAR
ENDFONT
